Coordinates
version=1
nRows=14
nColumns=24
inDegrees=yes

Units are S.I. units (second, meters, Newtons, ...)
Angles are in degrees.

endheader
time	pelvis_tilt	pelvis_list	pelvis_rotation	pelvis_tx	pelvis_ty	pelvis_tz	hip_flexion_r	hip_adduction_r	hip_rotation_r	knee_angle_r	ankle_angle_r	subtalar_angle_r	mtp_angle_r	hip_flexion_l	hip_adduction_l	hip_rotation_l	knee_angle_l	ankle_angle_l	subtalar_angle_l	mtp_angle_l	lumbar_extension	lumbar_bending	lumbar_rotation
      0.98216667	      0.49392188	     -0.74600903	      7.43211378	     -0.14226505	      1.00486732	      0.28413787	    -18.69617586	      4.98750175	     -4.33214194	     -2.88254434	      5.76055438	    -11.88228494	      2.13358062	     17.41906217	      1.70087373	      7.93432078	      3.41417631	      0.69712716	     -2.33361975	      4.68832039	    -15.08115341	      6.40595960	      3.32355813
      0.98633333	      0.48401172	     -0.72077771	      7.43481512	     -0.13668495	      1.00408268	      0.28358529	    -18.73838490	      4.92858327	     -4.44110631	     -3.47238556	      5.83476679	    -11.74982336	      5.57069113	     17.41737084	      1.80014176	      8.16937242	      3.44552737	      0.54388804	     -2.42103915	      6.54344202	    -15.05139494	      6.36595353	      3.30086901
      0.99050000	      0.47181061	     -0.68326379	      7.41403630	     -0.13109669	      1.00335295	      0.28305186	    -18.74094282	      4.84369926	     -4.53252408	     -4.15225897	      6.02907855	    -11.49544502	      5.62400602	     17.43192145	      1.90876158	      8.35082134	      3.35458355	      0.47468055	     -2.41859210	      6.53628423	    -15.02421186	      6.31523266	      3.31266210
      0.99466667	      0.46203370	     -0.63429040	      7.40830281	     -0.12549427	      1.00265527	      0.28249870	    -18.72792083	      4.74900088	     -4.65167826	     -4.86953420	      6.18502609	    -11.23877015	      5.71854983	     17.44754530	      2.03510026	      8.58435114	      3.17851536	      0.31582840	     -2.54945788	      6.53886760	    -14.99738419	      6.24321524	      3.29461847
      0.99883333	      0.44936041	     -0.55799691	      7.39449871	     -0.11985454	      1.00200705	      0.28196031	    -18.70008490	      4.62286437	     -4.74163105	     -5.61775800	      6.32165469	    -11.04171576	      5.83142239	     17.46110474	      2.18768902	      8.81949439	      2.92926088	      0.11851445	     -2.72251152	      6.55000230	    -14.97626613	      6.14996618	      3.26773057
      1.00300000	      0.42936925	     -0.49641181	      7.39102678	     -0.11421449	      1.00137721	      0.28140176	    -18.63406787	      4.50895595	     -4.86474303	     -6.41835952	      6.41567109	    -10.80029616	      6.00487534	     17.49579143	      2.33194715	      9.08362042	      2.59504341	     -0.14141426	     -2.99020994	      6.57482337	    -14.92960821	      6.05692403	      3.23318056
      1.00716667	      0.42177971	     -0.40504342	      7.38534831	     -0.10854536	      1.00080867	      0.28084126	    -18.56786547	      4.36373466	     -4.97759126	     -7.25372605	      6.48863970	    -10.60529270	      6.22325866	     17.51259434	      2.50633576	      9.34387062	      2.19872103	     -0.44802478	     -3.29632770	      6.60881976	    -14.90499454	      5.93750222	      3.18771894
      1.01133333	      0.45338968	     -0.29120529	      7.40985168	     -0.10284911	      1.00031201	      0.28023156	    -18.53620751	      4.20685189	     -5.14150720	     -8.10533302	      6.49918399	    -10.42035544	      6.83989712	     17.47231342	      2.70775907	      9.70395860	      1.77231564	     -0.79792383	     -3.73558491	      6.71725657	    -14.93215894	      5.79741516	      3.11611434
      1.01550000	      0.38956164	     -0.21415720	      7.38224528	     -0.09716624	      0.99975611	      0.27970250	    -18.35759048	      4.06166765	     -5.17623556	     -9.02884721	      6.47879349	    -10.33109164	      7.10349619	     17.58466468	      2.87568101	      9.86839215	      1.20600436	     -1.17366861	     -4.02803737	      6.75547690	    -14.83729667	      5.69051667	      3.07950146
      1.01966667	      0.36647262	     -0.10454195	      7.38509245	     -0.09144565	      0.99927261	      0.27911623	    -18.20849267	      3.89186061	     -5.29290838	     -9.99054075	      6.43158413	    -10.19608303	      7.43650036	     17.62990211	      3.08055384	     10.13312683	      0.63545771	     -1.59310438	     -4.46201783	      6.80130071	    -14.79388686	      5.54828530	      3.00229202
      1.02383333	      0.36062926	      0.01133632	      7.39300511	     -0.08572492	      0.99884745	      0.27851583	    -18.05693928	      3.71732477	     -5.41279353	    -10.98644934	      6.32419834	    -10.09738538	      7.88334633	     17.65850099	      3.29447495	     10.40317517	      0.02630833	     -2.04647818	     -4.95405963	      6.85632475	    -14.76752743	      5.39857021	      2.92467219
      1.02800000	      0.39313797	      0.14251163	      7.40213261	     -0.07997333	      0.99852544	      0.27792885	    -17.95309845	      3.54023322	     -5.48715094	    -11.94611905	      6.00640799	    -10.28445302	     13.42906536	     17.64034716	      3.51875183	     10.66743047	     -0.60869229	     -2.51190150	     -5.47347020	      7.50541080	    -14.80630840	      5.23563022	      2.86725860
      1.03216667	      0.36520052	      0.26491563	      7.40593644	     -0.07421799	      0.99814993	      0.27731683	    -17.71907226	      3.34716206	     -5.63083847	    -13.04858881	      5.79459788	    -10.17517071	     13.50531245	     17.72057402	      3.74632942	     10.81227607	     -1.33683694	     -2.91374405	     -5.81470604	      7.49227420	    -14.74630674	      5.07735564	      2.76691430
      1.03633333	      0.34298399	      0.38832550	      7.41129151	     -0.06846677	      0.99782336	      0.27670704	    -17.46959769	      3.15741476	     -5.74464392	    -14.18063720	      5.50888005	    -10.18412979	     13.65494568	     17.78088714	      3.97548369	     11.01967031	     -2.05712258	     -3.35908394	     -6.30494072	      7.47549660	    -14.70469697	      4.91786061	      2.67766198
